<?xml version="1.0" encoding="utf-8"?>
<!-- Generator: Adobe Illustrator 22.1.0, SVG Export Plug-In . SVG Version: 6.00 Build 0)  -->
<svg version="1.0" id="Layer_1" xmlns="http://www.w3.org/2000/svg" xmlns:xlink="http://www.w3.org/1999/xlink" x="0px" y="0px"
	 viewBox="0 0 298.4 287" enable-background="new 0 0 298.4 287" xml:space="preserve">
<path fill-rule="evenodd" clip-rule="evenodd" fill="#FFFFFF" d="M215.3,120.9l4.9-0.5l0.3-0.8l2.4-0.2l0.2,2.9l-1,1.5l-5.1,0.2
	l-0.5-0.8l-2.3-0.3l0.2-1.3L215.3,120.9z M215.7,93.4h-2.3l-0.5,1h-3.2l-0.3,1.2l-2.2,0.5l-1.3,1l-0.8,0.2l-0.3,0.5l-0.2,0.7v1.3
	l1.3,0.3h1.8l0.2-1.3h3.1v1.5h2.3l-0.2,1.7l-4.3,0.6l-0.3,1.2h-1.7l-1.3,1.5l0.3,1.9h2.8l0.3-1l2.7-0.2l0.7,1l2,0.2l-0.7,1.5l-3.7,1
	l-3.1,1.1l-0.2,3.5l1.3-0.5c0,0,1-1.2,1.5-1.2c0.5,0,7.3,0.4,7.3,0.4l-0.3,2l-4.3-0.2l-1.3,2l-3.2-0.2l0.1,1.8l7.3,0.5
	c0,0-0.5-1.3,0-1.3h2.5l0.3,0.8h1.8l1.9-0.6l1.3-0.2l0.6-3.3l-3.1-0.5l-0.3-2.5l1.3-1.1l-0.1-3.2l-3.3-0.2v-2.8l0.8-0.3l0.2-3
	l-3-0.8l0.2-3.1l1.3-1l0.2-2L215.7,93.4z M201,84.7l-1,1.8l1,1l1.1-0.8l2.8-0.3l2.8,0.2l-0.1,0.6l-1.1,1.1l-2.6,0.6l-1,1.2l-0.5,0.5
	l-0.3,2.3l2.8,0.1l0.7-0.8l7.5-0.3l2.1-2.3l0.5-3l-1.2-1.5h-1.8l-0.5-2.1l1.3-0.2v-3.1l-2.6,0.5l-2.4,1l-2.9,0.7l-1.5,1L201,84.7z
	 M195.1,72.8l0.2,2.4l4.5-0.1l0.2-1l3,0.1l0.5,1.7l-1.1,1.3l-2.8,0.7l-1.3,1.6l1,1.3l2.5-0.7l1.9-1.5l2.8-0.3l3.1,0.2l1.2-1.3
	l1.3-1.5v-1.8l-1.2-0.8l-3.1-0.3l-0.3-2.5l1-0.5l0.8-0.3l-0.5-1.8l-3.9-0.5l-0.5,0.8l-3,1.2l-1.8,1.6l-2,0.3L195.1,72.8z
	 M182.9,32.3l-3.8,3.4l-3.1,3.1l-0.1,2.2l1.8-0.2l2.5-2l3.6,0.2l-0.2,2l-2,1l-3.3,2.6l0.7,1.6l2.1,0.3l0.8-0.7h2.7l0.3,1l-3,2.6
	l-0.1,1.2L185,51l1.5-2.3l5,0.3l0.2,2.1l-3,0.3l-2.2,2l-0.5,3.1l4.1,0.3l1.3-1.3l1.5-1.6l3.5-0.2l1.5,0.2l-1.5,1.5l-3.1,1.5
	l-2.1,1.7l-1.6,1.3l-1.2,1l1.1,0.6l0.5,0.8h2.3l0.7-1l1.6-0.2v-1l2.9,0.2l-0.1,1.9l-3,1.3l-0.3,1.7h-1.5l-0.3,2.5l2.9,0.3l0.4-1.2
	h8.2l3.1-4.3l-0.5-2.4l-3.8-0.2l-0.3-2.9h1.2v-4.4l-3.3-0.3l-0.3,1l-1.6-1.2l0.8-0.8l-0.3-4.6l-2,0.2l-0.5,0.5l-2.1,0.7l0.3-2.5
	l0.8-0.8l-0.1-3.3l-1.7-0.2l-2.4,0.8l-1.5-0.3l0.2-1.7l1.3-0.4l-0.2-3.3l-1.5,0.1l-1.4,1.8l-2.6-0.5c0,0,0.3,0.3,0.8-1.2
	c0.5-1.5,0.1-4.9,0.1-4.9L182.9,32.3z M178,27.8l-7.5,7.9l1.3,1.6l3.8-1.1l1-1.8l2.5-1.5l2-0.3l-0.2-5.1L178,27.8z M171.6,22.2
	l-0.3,2.2l-3.1,3.1l-2.1,2.3v2l2.5,0.1l2.8-2.6l2.9-1.8l0.9-3.4l-0.7-2.1L171.6,22.2z M166.6,16.3l-2.2,3.6l-3.3,5.5l-1,1.2v2.1
	l3.3,0.2l1.1-2.5l3.2-1.6l1.3-1.1v-6.4L166.6,16.3z M159.8,14.6l-3.1,3.4l-0.7,3l-1.6,2.6l1.5,1.3l4.6-3.6l1.7-2L162,14L159.8,14.6z
	 M153.8,11.3l-3.1,5.4l-1,2.9h3.1l3.1-2.6l-0.2-5.2l-1-1.3L153.8,11.3z M149,7.9l-3.5,5.2l-0.8,3.8l1.2,0.8l3-1.8l1.6-1.9l0.5-4.3
	l-0.2-2.3L149,7.9z M141.9,6.7l-2,3.6l-1.3,3.1v2.6l1.6,0.2l1.3-2.3l2.1-3.1l1.4-2.1l-1-2.3l-1.5-1L141.9,6.7z M135.1,5.4l-2.6,4.6
	l0.2,2.9l2.5-0.1l3-3.3l0.3-3.4l-1.6-1.2L135.1,5.4z M127.1,4.6v7.2c0,0,2.1-1.8,2.6-2c0.5-0.2,1.6-2.8,1.6-2.8l-1-3.5l-1.3-0.3
	l-0.9,0.2L127.1,4.6z M120.1,3.9v8.7l1.8-0.7l1.3-2.1l1.5-1.8l-0.1-3.8l-1.1-0.8l-1.5-1.1l-1.5,0.3L120.1,3.9z M114.4,3.9v7.6
	l2.4,0.3l1.8-2l0.3-3.1l-1.8-3.1L114.4,3.9z M107.3,2.5l0.3,9.1l1.6,1.3l2-0.3l1-2.1V4.4l-1.5-2.4l-2.1-0.2L107.3,2.5z M89.2,6.7
	l0.8,6.1l0.5,0.3l1,1.8l1.7-0.5l2.4-2.4l0.8-1.6l-0.7-3.1l-1.3-1.3h-1.2l-0.5-1l-2.1,0.1L89.2,6.7z M81.7,9.9l0.3,1.6l0.8,0.5
	l0.5,2.8l1.5,1.1l2.1-2.1l1.8-1.5l-0.3-1.5l-1.2-1L85.6,9l-0.7-0.7h-3.1L81.7,9.9z M74.9,11.5l-1,0.7l0.2,3l1.2,2.6l1.6,1.2l2.8-2.3
	l0.2-4.9l-1.6-0.3l-0.3-0.8l-2.4,0.2L74.9,11.5z M38.8,30.6l-0.3,1.3H42l6.6-3.7l7.4-4.2l5-2.9l1-2l1.6-0.2l-0.2,2.7l3.1,1.5
	l3.9-3.5v-3.4l-7.7-0.2l-11.9,6.7l-8.4,5.8L38.8,30.6z M24.2,38.1c4.9-4.6,10.3-3.9,10.3-3.9l0.7,1.1c0,0-5.8,1.3-10.2,4
	C24.2,39.2,24.2,38.1,24.2,38.1 M198.5,121v4.3l3.8-0.2l-0.5-2.9l-0.9-1.4L198.5,121z M197.5,114.3l0.3,2.4l0.9,0.9l1.7,0.7l1.4-0.9
	l-0.9-3.1l-1.5-1.4L197.5,114.3z M195.9,106.9l0.7,3.4l1.4,1.2l0.7-4.1L195.9,106.9z M193.8,99.6l0.2,3.3l3.1,0.9l0.9-3.3l-0.5-1.4
	L193.8,99.6z M192.1,90.3l-0.2,3.3l1.9,1l1.4-1.4l-0.2-2.4L192.1,90.3z M189.2,82.4h2.6l0.9,0.9v3.8l-1.4,0.3l-1.4-0.7l-0.5-1.7
	l-1.3-0.5L189.2,82.4z M186.3,77.4l0.2,1.9l2.9,0.5l0.2-3.6l-2.2-0.5L186.3,77.4z M180.2,65.3l1.2,3.1l0.5,3.1l1.4,2.4h1.7l1.7-0.9
	l-0.4-2.9l-1.5-2.1l-1.9-0.7l-0.9-2.2L180.2,65.3z M175,57v3.1h3.1v-3.3L175,57z M170.4,52l0.3,2.1l3.8,0.2v-1.7l-2.2-2.6L170.4,52z
	 M164.9,45.9l0.5,3.1l2.5,1.2l1.6-1.2l-0.7-3.1H164.9z M160.9,40.3l-1.9,2.6l1.7,1.7l1.7-0.5l1.2-2.1l-0.7-1.2L160.9,40.3z
	 M153.1,38v1.9l2.9,0.2l1.4-1.2l1.2-1.9l-1.2-2.1l-2.6,0.2L153.1,38z M141.1,24.4l-2.8,1.9l-0.2,4.5l3.1,0.2l1.9-0.7l1,1.2l0.4,1.4
	l1.5,1.4h0.9l0.9-0.9h1.9l0.2,3.1l2.8-0.3l0.2-4l-2.4-0.7l-1.2-3.3l-2.8-1.2l-1.5-1.7L141.1,24.4z M130.5,22.2v4.1l4.3,0.2l1.9-2.4
	l-0.5-2.4L130.5,22.2z M122.8,20.1l-1.9,0.9l0.5,2.8l5.5,0.8l0.4-3.6l-2.1-0.5L122.8,20.1z M111.9,19.9l0.5,5.3l2.4-1.2l1.7-1.2
	l1.7-0.3l1.2-1.2v-2.9l-5.4-0.5l-0.5,1.7L111.9,19.9z M104.8,18.7v2.8l1.9,1.9l1.9-1.4l1.7-0.5l-0.3-3.1L104.8,18.7z M96,19.4
	l0.5,4.5l3.1-0.2l1.4-1.7l1-0.2v-1.9l-0.5-1.2l-2.1-0.3L96,19.4z M88.4,21.1v5.5l3.3-0.2l0.2-1.9l1.4-1l0.7-1l-0.2-1.6l-1-1.4
	l-3.3,0.2L88.4,21.1z M77.9,23l0.2,5.3l2.1,0.5l1.3-1.4l0.2-1.7l2.1-0.2l0.3-0.9l0.9-0.3V22l-1.2-0.5l-2.9-0.5L80,22L77.9,23z
	 M61.5,27.8l-1.4,2.4l0.7,2.1l1.6,0.9l1.7-1.7l1.9-2.4h2.6l1.6,0.5l2.6-0.2l2.4-1.4l0.4-1.7L75,24.7l-5-0.2l-2.2,1.7l-5,0.2
	L61.5,27.8z M39.9,41.5l6.6-5.3l4.8-3.8l4.7-2.8l2.2,0.5l-1.4,2.6l-2.9,0.7l-3.3,2.8L44.1,41L39.9,41.5z M182.8,134.4l1.9,2.2
	c0,0,2.5,6.3,0.9,7.5c-1.6,1.3-3.2,3.8-3.2,3.8s-0.3,0-1.2-2.2c-0.9-2.2-1.3-5.7-1.3-5.7l1.3-3.7L182.8,134.4z M139.1,112.7
	c0,0,4.1,2.5,7,3.5c2.8,0.9,6.3,2.5,7.5,4.1c1.2,1.6,3.1,4.4,4.4,4.4c1.3,0,2.8,0.9,2.8,0.9l1,1.6c0,0,1.9,0.3,2.8,1.6
	c0.9,1.2,0.9,3.2,0.9,3.2l1.6,2.2c0,0,1.6,1.9,2.6,1.9c0.9,0,2.5,1.6,2.5,1.6s2.2,1.9,2.2,3.4c0,1.6,0.3,5.4-1.2,5.7
	c-1.6,0.3-4.4,1.3-4.4,1.3s-2.3,3.8-3.5,3.8c-1.3,0-3.4-2.5-3.4-2.5s-2.9-3.8-4.1-4.4c-1.3-0.6-3.7-2.2-3.7-2.2l-3.2-2.5l-3.7-7.2
	l-3.2-5.1c0,0-2.5-2.8-2.8-4.7c-0.3-1.9-1.6-6-1.6-6L139.1,112.7z M219.1,145.3l-2.5-0.1v2.8h1.3l-0.1-0.8l1.3-0.1v-1.4V145.3z
	 M209.1,125.3c0,0,6-1.2,8.8,0.3c2.8,1.6,6.7,0.8,6.7,0.8s-0.2,32,52.5,68.6c0,0,12.2,0.5,12.2,3.7c0,3.2-0.5,3-2,3.6
	c-1.5,0.6-3.9,1.2-3.5,2.7c0.3,1.5,2.1,5,4.1,5.9c2.1,0.9,3.5-0.3,3.9,1.2c0.3,1.5,0,3.8-1.5,4.4c-1.5,0.7-6.2,1.2-7.7,0.3
	c-1.5-0.9-8.4-4.8-11.1-5.4c-2.7-0.6-8.9-2.4-10.1-1.2c-1.2,1.2,0.6,2.7,5,3.9c4.4,1.2,8.1,2.2,8.1,3.6c0,1.5,0.8,2.7-1.9,3.2
	c-2.7,0.6-6.5-0.5-9.8-2.9c-3.3-2.5-8.2-1.9-10.1-2.2c-1.8-0.3-20.9,0.3-24.2-0.3c-3.3-0.6-20.5-3.8-21.4-7.1
	c-0.9-3.3-0.9-11.9,2.1-12.5c3-0.6,5.7-0.6,8.4,0.6c2.7,1.2,7.1,2.7,7.4,0.9c0.3-1.8,0.3-3.6-2-5.7c-2.4-2.1-5.1-3-5.1-7.4
	c0-4.4-0.9-5.9,1.8-6.8c2.7-0.9,5.1-0.9,7.4,0c2.4,0.9,5.1,0.9,7.8,3.9c2.7,3,17,14,20.2,15.5c3.3,1.5,4.1,2.1,7.1,3.9
	c3,1.8,7.1,4.1,8.9,4.4c1.8,0.3,3.6,0,3.4-1.5c-0.3-1.5-3.4-4.5-4.5-5.6c-1.2-1.2-3.5-2.2-5.9-3.6c-2.4-1.5-6-5.3-6-5.3l-1.7-0.6
	l-0.9-3.3l-4.8-4.4l-3.3-0.9l-2.4-1.5c0,0-0.9-0.6-2.1-1.8c-1.2-1.2-3.5-2.7-3.5-2.7l-0.9-4.1c0,0-2.4-2.7-4.2-3.3
	c-1.8-0.6-3-0.9-4-2.4c-0.9-1.5-3.8-5.3-3.8-5.3l-1.2-2.6l-2.4,0.9h-2.1l-0.9-2.4l-2.4-1.5l-0.3-3.6l3.3-0.3l1.7,1.2h1.2l-0.3-2.9
	l-2.4-2.1v-3l-1.2-0.9l-3.5,0.3l-1.8,0.9l-2.9-0.3l1.8-3.2l2.7-2.4l0.9-2.7l-0.3-3.6l-1.5-1.5l-4.1-0.3l-1.6-0.3l-1.2-1.5
	L209.1,125.3z M226.5,113.1v-3.4l-1.1-2.2l-0.9-2l-2.5-1.4l0.3-4.8l-0.9-0.6l0.3-3.9l-1.1-0.9l-0.3-1.4l-1.4-0.8V87l-0.8-2h-1.1V80
	l-1.1-0.6V76l-1.1-0.3l-0.9-3.7l-2-1.4v-2.8l-1.7-2.2l-0.7-2l-1.1-2.8l-1.7-2.3l-0.8-3.4l-0.6-1.4L202,50l-0.6-2.8l-2.6-2.1
	l-0.8-3.1l-2-0.8l-2-1.4l-0.6-1.4l-0.5-1.7l-1.1-1.1l-2-0.6l-0.9-2l-1.3-2l-5.4-5.1l-2.5-0.8l-2.5-2.4l-2.3-2l-2.6-0.8l-2.5-3.1
	l-5.8-4.2l-2.6-1.7L157,8.9l-4.5-3.1l-4.5-2L138.1,3l-6.2-1.6h-5.1L118.7,0l-11.6,0.5h-2.8l-5.8,1.4l-6.2,1.3l-7.9,2.8l-3.9,2.3
	l-6.5,0.3l-14.3,7.6l-6.8,3.4l-7.9,5l-4.5,3.1l-8.1,4l-4.5,1.4l-5.4,3.1l-7.5,5.7l-7.9,6.1l-3.7,4.3L4,53.2l11.9-7.1L29.1,40
	l4.5-0.9l-0.3,1.7l-12.4,9.5L8.5,58.5L0,65.6l0.3,2.2l11-6.1l9.5-5.4l10.7-5.6l12.9-6.4l10.2-6l8.1-3.4l3.1,1.4l2-2.8h8l6.7-2.3
	l7.4-0.3l3.7-1.4l4.2-0.6l2-1.4h3.3l1.1,1.4l4-1.4l2.3-0.3l3.1,1.4l6.8,1.7l6.1,0.8l4.5,1.4l5.9,1.1l3.1,2.8l4.5,1.1l5.5,3.4l2.3,2
	l2.5,2.3l5.4,3.6l6.2,5.4l1.6,3.1l3.4,0.8l1.7,2.8l3.4,9l1.7,2.2l2.3,4l0.3,2.8l3.1,3.1l0.6,5.1l1.2,1.6l0.8,6l2,1.1
	c0,0,0.2,2.8,0.8,4.2c0.6,1.4,1.4,3.4,1.4,3.4l0.3,5.6l1.7,1.3v5.4l-1.1,0.8l0.6,1.7l1.7,1.4l0.8,5.5l-4.2,1.9l-4.3,2.7l-5.7,1.6
	l-2.3-1.3l-1.5-3.4l-2.7-1.9l-3.8-3.4l-7.7-5.7c0,0-6.1-3.4-8.4-5c-2.3-1.5-8.9-3.9-8.9-3.9s-2.6-1.1-4.2-1.1
	c-1.5,0-9.1-4.6-10.6-6.1c-1.5-1.5-4.9-3-4.9-3s1.1,6.5,1.9,7.6c0.8,1.1,7.2,7.7,7.2,7.7l0.8,4.2c0,0,2.3,3.8,3.8,6.5
	c1.5,2.7,10.4,19.5,10.4,19.5l-1.9,3.1l-9.2,0.7l-6.1,2.7l-4.6,2.6l-2.7,3.5l-4.3,1.5l-8.4,1.9l-5.3,4.6l-9.3,4.6l-1.5,4.9
	c0,0-3.8,0.7-6.5,2.8c-2.7,2-3.4,4.6-4.2,6.1c-0.8,1.5-8.1,9.5-9.2,11c-1.2,1.5-4.2,0.8-6.1,1.2c-1.9,0.4-9.1,6.6-10.4,8.1
	c-1.2,1.5-0.4,3-0.4,3l-10.3,8.7c0,0-1.9,2.3-4.2,4.3c-2.3,2-4.2,6.1-4.2,6.1s-2.8,0.8-4.3,1.5c-1.5,0.8-2.7,3.1-4.6,2.7
	c-1.9-0.4-2.7,1.1-4.2,2.7c-1.5,1.5-0.8,4.9-2.3,4.9c-1.5,0-4.4,5.6-4.4,5.6s84-13.5,133.2,45.9h44.4c0,0-1.2-15.1,3.5-21
	c4.7-5.9,6.7-14.6,3.2-22.2c-3.6-7.6-7.5-20.7-4.8-25c3.3-4.9,8-1.2,12.7-0.8c4.7,0.4,33.3,3.6,36,2.4c2.8-1.2,5.7-2.8,14.7,2
	c9.1,4.7,12.3,0,14.3-0.4c2-0.4,12.6-0.7,14.2-2.3c1.6-1.6,5.3-4.1,5.6-6c0.4-2-0.5-8.7-3.2-10.2c-2.8-1.6,0-4.6-1.6-7.1
	c-1.6-2.5-17.9-11.9-20.2-14.3c-2.4-2.4-35.2-27.8-38.4-35.3c-3.1-7.5-6-11.6-7.2-21.8C226.5,114.6,226.5,113.1,226.5,113.1"/>
</svg>
